<svg width="299" height="304" viewBox="0 0 299 304" fill="none" xmlns="http://www.w3.org/2000/svg">
<path d="M161.111 7.64128C164.655 -1.49671 178.183 0.810886 178.497 10.6071L180.459 71.759C180.722 79.9654 189.558 85.0011 196.753 81.0455L250.368 51.569C258.956 46.8471 267.836 57.3103 261.78 65.0167L223.976 113.123C218.902 119.579 222.434 129.116 230.488 130.71L290.506 142.593C300.121 144.497 300.198 158.22 290.605 160.23L230.723 172.781C222.687 174.466 219.262 184.042 224.407 190.44L262.745 238.122C268.887 245.76 260.125 256.322 251.484 251.696L197.544 222.82C190.305 218.944 181.526 224.078 181.354 232.287L180.074 293.457C179.869 303.256 166.368 305.715 162.722 296.617L139.963 239.824C136.909 232.202 126.884 230.492 121.476 236.67L81.1758 282.706C74.72 290.081 62.7972 283.286 65.8524 273.973L84.9237 215.838C87.4831 208.036 80.9027 200.282 72.7887 201.538L12.3258 210.9C2.63998 212.4 -2.1255 199.53 6.20105 194.36L58.1791 162.085C65.1544 157.754 65.0977 147.584 58.0745 143.331L5.73971 111.637C-2.644 106.56 1.97766 93.6384 11.6796 95.0299L72.2432 103.717C80.3707 104.882 86.8642 97.0553 84.218 89.2828L64.4995 31.364C61.3407 22.0857 73.1869 15.1579 79.7246 22.4602L120.535 68.044C126.012 74.1613 136.017 72.3395 138.986 64.6845L161.111 7.64128Z" stroke="#F7F2F6" stroke-width="2"/>
</svg>
