<svg width="187" height="187" viewBox="0 0 187 187" fill="none" xmlns="http://www.w3.org/2000/svg">
<path d="M175.432 36.581C183.665 35.16 189.223 44.7482 183.898 51.1861L142.131 101.682C140.085 104.156 139.222 107.4 139.768 110.563L150.913 175.139C152.334 183.372 142.746 188.93 136.308 183.605L85.8123 141.839C83.3385 139.792 80.0942 138.929 76.9305 139.475L12.3548 150.62C4.12174 152.041 -1.436 142.453 3.889 136.015L45.6555 85.5198C47.7017 83.0459 48.565 79.8016 48.019 76.6379L36.8736 12.0622C35.4526 3.82917 45.0407 -1.72857 51.4787 3.59644L101.974 45.3629C104.448 47.4091 107.692 48.2724 110.856 47.7264L175.432 36.581Z" stroke="#F7F2F6" stroke-width="2"/>
</svg>
