<svg width="176" height="176" viewBox="0 0 176 176" fill="none" xmlns="http://www.w3.org/2000/svg">
<path d="M60.5991 11.0208C60.1083 1.23184 73.4011 -2.17839 77.6833 6.63784L85.9983 23.7565C89.5856 31.142 99.7067 32.1364 104.663 25.5903L116.15 10.4172C122.067 2.60295 134.442 8.53502 132.055 18.0412L127.421 36.4996C125.422 44.4632 132.536 51.7306 140.54 49.9017L159.093 45.6626C168.648 43.4794 174.315 55.978 166.376 61.7262L150.961 72.8874C144.311 77.7028 145.089 87.8428 152.397 91.5869L169.334 100.265C178.057 104.735 174.364 117.952 164.588 117.252L145.605 115.894C137.415 115.308 131.493 123.576 134.685 131.141L142.081 148.676C145.89 157.707 134.565 165.458 127.526 158.638L113.858 145.395C107.961 139.682 98.1099 142.209 95.6916 150.056L90.0863 168.243C87.1995 177.609 73.5419 176.267 72.5333 166.518L70.5747 147.588C69.7297 139.421 60.559 135.025 53.6629 139.481L37.6786 149.81C29.4466 155.13 19.8468 145.323 25.3408 137.206L36.0085 121.446C40.6109 114.646 36.4115 105.384 28.2643 104.365L9.38024 102.003C-0.345206 100.787 -1.39536 87.1036 8.03054 84.4173L26.333 79.2012C34.2292 76.9509 36.966 67.1562 31.38 61.1387L18.4322 47.1908C11.764 40.0076 19.7549 28.8507 28.7022 32.8518L46.0755 40.6207C53.5709 43.9724 61.9633 38.2284 61.5521 30.0281L60.5991 11.0208Z" stroke="#F7F2F6" stroke-width="2"/>
</svg>
