<svg width="1920" height="671" viewBox="0 0 1920 671" fill="none" xmlns="http://www.w3.org/2000/svg">
<path d="M-64 2C-33.3346 9.16853 -3.66337 19.7905 26.1498 29.8553C173.414 79.571 319.035 133.441 464.575 187.955C598.156 237.99 734.451 293.762 877.93 306.973C929.971 311.765 971.609 312.048 1021.51 298.026C1051.71 289.539 1071.43 280.008 1089.55 255.398C1106.04 232.998 1104.91 202.026 1083.97 183.312C1059.82 161.726 1023.3 159.361 992.643 160.015C949.074 160.945 898.724 168.36 862.399 194.455C821.963 223.501 811.109 271.251 811.753 318.453C812.991 409.245 845.329 497.812 901.48 568.728C926.363 600.153 954.22 632.41 993.825 645.035C1075.85 671.181 1164.13 656.554 1247.22 645.879C1350.94 632.553 1454.26 622.23 1559.03 624.439C1633.54 626.009 1703.7 637.932 1775.97 654.488C1822.07 665.05 1869.92 677.657 1916.59 661.917C1944.61 652.466 1963.72 635.308 1984.12 615.829" stroke="#41b30a" stroke-width="3" stroke-linecap="round"/>
</svg>
