<svg width="296" height="63" viewBox="0 0 296 63" fill="none" xmlns="http://www.w3.org/2000/svg">
<path d="M35.42 1.252C36.9107 1.252 38.43 2.198 39.978 4.08999C41.5833 5.982 42.386 7.55866 42.386 8.82C42.386 10.024 42.1567 10.626 41.698 10.626C41.2967 10.626 40.494 10.4253 39.29 10.024C38.086 9.56533 36.9967 9.336 36.022 9.336C33.786 9.336 31.0627 10.4827 27.852 12.776C24.6987 15.0693 21.6887 17.9073 18.822 21.29C16.0127 24.6727 13.6047 28.5427 11.598 32.9C9.59133 37.2 8.588 40.9267 8.588 44.08C8.588 47.2333 9.39067 49.5553 10.996 51.046C12.6587 52.4793 14.8087 53.196 17.446 53.196C20.0833 53.196 22.8067 52.8233 25.616 52.078C28.4253 51.2753 30.7187 50.3867 32.496 49.412C37.0827 46.9467 39.6053 45.714 40.064 45.714C41.0387 45.714 41.526 46.3733 41.526 47.692C41.526 48.9533 40.2073 50.6733 37.57 52.852C34.9327 54.9733 31.6647 56.894 27.766 58.614C23.8673 60.334 20.37 61.194 17.274 61.194C13.2607 61.194 9.47667 59.474 5.922 56.034C2.36733 52.5367 0.59 48.6953 0.59 44.51C0.59 39.1207 2.33867 33.0433 5.836 26.278C9.39067 19.4553 13.92 13.5787 19.424 8.648C24.9853 3.71733 30.3173 1.252 35.42 1.252ZM55.8564 61.538C55.1684 61.538 54.2224 60.7927 53.0184 59.302C51.8144 57.754 51.2124 56.292 51.2124 54.916C51.2124 53.54 52.4738 47.9213 54.9964 38.06C54.2511 37.7733 53.5918 37.286 53.0184 36.598C52.5024 35.8527 52.2444 35.0213 52.2444 34.104C52.2444 33.3587 53.7351 32.5273 56.7164 31.61C60.5578 16.5887 62.4784 7.272 62.4784 3.66C62.4784 2.68533 62.5931 2.026 62.8224 1.68199C63.1091 1.28066 63.6251 1.08 64.3704 1.08C65.1731 1.08 66.2051 1.96866 67.4664 3.746C68.7851 5.52333 69.4444 7.53 69.4444 9.766C69.4444 11.9447 68.0398 18.5667 65.2304 29.632C72.7984 28.084 80.2231 27.0807 87.5044 26.622C90.4284 14.6967 91.8904 7.04266 91.8904 3.66C91.8904 1.94 92.4638 1.08 93.6104 1.08C94.5851 1.08 95.7318 1.96866 97.0504 3.746C98.3691 5.52333 99.0284 7.38666 99.0284 9.336C99.0284 11.228 97.7384 17.0473 95.1584 26.794C97.7958 27.1953 99.1144 27.998 99.1144 29.202C99.1144 30.3487 97.3371 31.2947 93.7824 32.04C91.9478 38.8053 90.6864 43.5067 89.9984 46.144C89.3678 48.724 88.8518 50.788 88.4504 52.336C88.0491 53.884 87.6191 55.432 87.1604 56.98C86.3578 60.0187 85.6411 61.538 85.0104 61.538C84.2078 61.538 83.2618 60.8787 82.1724 59.56C81.1404 58.184 80.6244 56.7793 80.6244 55.346C80.6244 53.9127 82.3444 46.5453 85.7844 33.244C77.4138 34.3907 69.8744 35.7093 63.1664 37.2C62.3638 40.1813 61.5898 43.0767 60.8444 45.886C60.1564 48.638 59.6118 50.788 59.2104 52.336C58.8091 53.884 58.3791 55.432 57.9204 56.98C57.1178 60.0187 56.4298 61.538 55.8564 61.538ZM150.708 31.782C150.708 32.8713 148.185 34.1327 143.14 35.566C143.598 41.5287 143.828 46.6027 143.828 50.788C143.828 58.012 142.91 61.624 141.076 61.624C140.101 61.624 139.327 61.022 138.754 59.818C138.18 58.614 137.722 56.5213 137.378 53.54C136.976 48.036 136.546 42.6467 136.088 37.372C133.508 38.06 131.157 38.6907 129.036 39.264C126.914 39.78 123.704 40.64 119.404 41.844C114.358 55.0307 111.377 61.624 110.46 61.624C109.542 61.624 108.539 61.0793 107.45 59.99C106.418 58.8433 105.902 57.6393 105.902 56.378C105.902 55.8047 107.536 51.734 110.804 44.166H110.202C109.055 44.166 108.023 43.7933 107.106 43.048C106.246 42.3027 105.816 41.3853 105.816 40.296C105.816 39.1493 108.654 37.6587 114.33 35.824C115.247 33.76 115.992 31.8967 116.566 30.234C117.884 26.966 119.719 22.494 122.07 16.818C124.42 11.142 125.911 7.53 126.542 5.982C127.172 4.37666 128.262 3.02933 129.81 1.94C131.415 0.793331 132.963 0.219998 134.454 0.219998C136.231 0.219998 137.808 3.058 139.184 8.734C140.617 14.41 141.764 21.4333 142.624 29.804C144.229 29.632 145.634 29.546 146.838 29.546C149.418 29.546 150.708 30.2913 150.708 31.782ZM122.586 33.588C126.656 32.4987 130.956 31.5813 135.486 30.836C134.454 21.032 133.45 13.6647 132.476 8.734C129.896 14.6393 126.599 22.924 122.586 33.588ZM178.004 8.648L163.298 9.336C162.381 9.336 161.435 8.734 160.46 7.53C159.485 6.326 158.998 5.15066 158.998 4.004C158.998 2.972 160.632 2.31266 163.9 2.026C167.225 1.73933 174.478 1.596 185.658 1.596C191.449 1.596 196.207 2.22666 199.934 3.488C203.718 4.74933 205.61 6.154 205.61 7.702C205.61 8.79133 204.664 9.336 202.772 9.336C200.88 9.336 198.243 9.22133 194.86 8.992C191.477 8.76266 188.238 8.61933 185.142 8.562C185.314 9.13533 185.4 9.766 185.4 10.454C185.4 12.5753 183.164 22.4367 178.692 40.038C178.233 41.8727 177.545 44.7393 176.628 48.638C175.711 52.5367 175.023 55.26 174.564 56.808C173.761 59.8467 173.045 61.366 172.414 61.366C171.554 61.366 170.579 60.7353 169.49 59.474C168.458 58.1553 167.942 56.8367 167.942 55.518C167.942 54.1993 169.49 47.434 172.586 35.222C175.682 22.9527 177.488 14.0947 178.004 8.648ZM223.081 8.648L208.375 9.336C207.458 9.336 206.512 8.734 205.537 7.53C204.563 6.326 204.075 5.15066 204.075 4.004C204.075 2.972 205.709 2.31266 208.977 2.026C212.303 1.73933 219.555 1.596 230.735 1.596C236.526 1.596 241.285 2.22666 245.011 3.488C248.795 4.74933 250.687 6.154 250.687 7.702C250.687 8.79133 249.741 9.336 247.849 9.336C245.957 9.336 243.32 9.22133 239.937 8.992C236.555 8.76266 233.315 8.61933 230.219 8.562C230.391 9.13533 230.477 9.766 230.477 10.454C230.477 12.5753 228.241 22.4367 223.769 40.038C223.311 41.8727 222.623 44.7393 221.705 48.638C220.788 52.5367 220.1 55.26 219.641 56.808C218.839 59.8467 218.122 61.366 217.491 61.366C216.631 61.366 215.657 60.7353 214.567 59.474C213.535 58.1553 213.019 56.8367 213.019 55.518C213.019 54.1993 214.567 47.434 217.663 35.222C220.759 22.9527 222.565 14.0947 223.081 8.648ZM271.857 30.922C272.889 30.922 274.752 28.4853 277.447 23.612C280.199 18.6813 282.98 13.7507 285.789 8.82C288.656 3.88933 290.691 1.424 291.895 1.424C293.099 1.424 294.074 1.854 294.819 2.714C295.564 3.574 295.937 4.606 295.937 5.81C295.937 7.014 294.848 9.422 292.669 13.034C290.49 16.646 287.566 21.4333 283.897 27.396C280.228 33.3013 276.558 39.7227 272.889 46.66C269.22 53.5973 266.697 57.926 265.321 59.646C263.945 61.366 262.827 62.226 261.967 62.226C260.706 62.226 260.075 61.194 260.075 59.13C260.075 57.5247 260.878 55.088 262.483 51.82C262.999 50.8453 263.4 50.0427 263.687 49.412C263.974 48.724 264.432 47.778 265.063 46.574C265.694 45.37 266.181 44.4527 266.525 43.822C266.869 43.134 267.385 42.102 268.073 40.726C268.818 39.2927 269.363 38.2607 269.707 37.63C266.324 36.77 263.2 34.6487 260.333 31.266C257.524 27.826 255.374 24.0133 253.883 19.828C252.392 15.5853 251.647 11.4573 251.647 7.444C251.647 3.43066 252.794 1.424 255.087 1.424C256.004 1.424 256.721 2.31266 257.237 4.08999C257.81 5.86733 258.498 8.41866 259.301 11.744C260.104 15.0693 261.164 18.1367 262.483 20.946C263.802 23.698 265.378 26.0487 267.213 27.998C269.048 29.9473 270.596 30.922 271.857 30.922Z" fill="#DC7E27"/>
</svg>
