<svg width="318" height="318" viewBox="0 0 318 318" fill="none" xmlns="http://www.w3.org/2000/svg">
<path d="M210.048 3.00036C212.423 0.145827 217.067 1.78618 217.123 5.499L218.94 127.494C218.966 129.245 219.756 130.897 221.102 132.017L314.895 210.048C317.75 212.423 316.11 217.067 312.397 217.123L190.402 218.94C188.651 218.966 186.999 219.756 185.879 221.102L107.848 314.895C105.473 317.75 100.829 316.109 100.773 312.397L98.9557 190.402C98.9296 188.651 98.1399 186.999 96.7937 185.879L3.00051 107.848C0.145974 105.473 1.78632 100.828 5.49915 100.773L127.494 98.9555C129.245 98.9294 130.897 98.1397 132.017 96.7935L210.048 3.00036Z" stroke="#41B30A" fill="#41B30A" stroke-width="2"/>
</svg>
