<svg width="722" height="735" viewBox="0 0 722 735" fill="none" xmlns="http://www.w3.org/2000/svg">
<path d="M256.47 10.6581C255.924 -0.218506 270.694 -4.00768 275.452 5.78814L366.113 192.439C369.375 199.153 378.576 200.057 383.081 194.106L508.335 28.6687C514.908 19.9862 528.658 26.5773 526.006 37.1398L475.48 238.399C473.662 245.638 480.13 252.245 487.406 250.583L689.698 204.361C700.314 201.936 706.611 215.823 697.79 222.21L529.717 343.905C523.672 348.283 524.379 357.501 531.022 360.905L715.697 455.528C725.389 460.494 721.285 475.179 710.423 474.402L503.447 459.591C496.002 459.059 490.619 466.575 493.52 473.452L574.166 664.644C578.399 674.678 565.816 683.29 557.994 675.713L408.962 531.326C403.601 526.132 394.646 528.43 392.447 535.563L331.331 733.863C328.123 744.27 312.948 742.779 311.827 731.946L290.472 525.544C289.704 518.119 281.367 514.123 275.098 518.174L100.815 630.795C91.668 636.706 81.0016 625.809 87.106 616.791L203.42 444.95C207.604 438.769 203.786 430.349 196.38 429.422L-9.52028 403.668C-20.3263 402.317 -21.4932 387.113 -11.0199 384.128L188.539 327.256C195.717 325.21 198.205 316.306 193.127 310.836L51.9526 158.757C44.5435 150.776 53.4222 138.379 63.3637 142.825L252.791 227.532C259.605 230.579 267.235 225.357 266.861 217.902L256.47 10.6581Z" fill="#D7611F"/>
</svg>
