<svg width="334" height="335" viewBox="0 0 334 335" fill="none" xmlns="http://www.w3.org/2000/svg">
<path d="M135.495 5.69594C132.165 -1.16113 121.826 1.49126 122.208 9.10487L126.525 95.219C126.712 98.9464 122.898 101.557 119.491 100.034L40.7796 64.8363C33.8205 61.7243 27.6054 70.4019 32.7918 75.9888L91.4525 139.181C93.9917 141.916 92.7477 146.368 89.1585 147.391L6.23783 171.022C-1.09343 173.112 -0.276646 183.754 7.28758 184.7L92.8432 195.402C96.5465 195.865 98.4553 200.075 96.3633 203.166L48.0325 274.569C43.7594 280.882 51.2259 288.509 57.6286 284.372L130.047 237.575C133.181 235.55 137.35 237.548 137.734 241.26L146.607 327.025C147.392 334.608 158.014 335.651 160.26 328.366L185.655 245.969C186.754 242.402 191.232 241.253 193.912 243.85L255.838 303.846C261.313 309.15 270.121 303.122 267.159 296.098L233.648 216.654C232.198 213.215 234.89 209.457 238.612 209.723L324.615 215.877C332.218 216.421 335.091 206.142 328.306 202.665L251.57 163.348C248.249 161.646 247.895 157.037 250.918 154.848L320.755 104.281C326.93 99.8102 322.523 90.089 315.091 91.7871L231.035 110.993C227.396 111.824 224.163 108.521 225.072 104.901L246.066 21.2739C247.923 13.8801 238.298 9.26632 233.696 15.3441L181.651 84.0868C179.398 87.0623 174.797 86.6103 173.167 83.2532L135.495 5.69594Z" stroke="#D738FF" stroke-width="2"/>
</svg>
