<svg width="100" height="100" viewBox="0 0 100 100" fill="none" xmlns="http://www.w3.org/2000/svg">
<path d="M37.1564 2.3392C37.0474 0.163886 40.0013 -0.59395 40.9529 1.36521L51.9621 24.0306C52.6144 25.3735 54.4546 25.5543 55.3557 24.3641L70.5655 4.27462C71.8802 2.53812 74.6302 3.85635 74.0998 5.96885L67.9643 30.4081C67.6008 31.856 68.8943 33.1774 70.3496 32.8449L94.9142 27.2321C97.0376 26.747 98.2968 29.5245 96.5327 30.8018L76.1233 45.5796C74.9141 46.4551 75.0556 48.2987 76.3842 48.9795L98.8096 60.4697C100.748 61.4629 99.9274 64.4 97.7549 64.2446L72.6215 62.4461C71.1324 62.3395 70.0557 63.8428 70.6359 65.2183L80.429 88.4351C81.2755 90.4419 78.7589 92.1643 77.1946 90.6488L59.0973 73.1156C58.0251 72.0769 56.2341 72.5364 55.7944 73.963L48.3728 98.0429C47.7313 100.124 44.6963 99.8262 44.4721 97.6597L41.8789 72.5958C41.7253 71.1109 40.0579 70.3116 38.8041 71.1218L17.6405 84.7977C15.8112 85.9798 13.6779 83.8005 14.8988 81.9968L29.023 61.1299C29.8598 59.8936 29.0963 58.2095 27.615 58.0242L2.61215 54.8969C0.450943 54.6266 0.217568 51.5859 2.31221 50.9889L26.545 44.0828C27.9807 43.6737 28.4783 41.8928 27.4627 40.7987L10.3196 22.3315C8.83776 20.7352 10.6135 18.2559 12.6018 19.145L35.6044 29.4312C36.9672 30.0406 38.4931 28.9962 38.4183 27.5053L37.1564 2.3392Z" fill="#d738ff"/>
</svg>
