<svg width="1919" height="591" viewBox="0 0 1919 591" fill="none" xmlns="http://www.w3.org/2000/svg">
<path d="M2 65.6208C69.6071 85.627 132.701 111.271 196.853 140.985C276.922 178.072 328.319 204.887 407.44 244.626C467.222 274.651 525.881 306.299 588.839 329.453C700.791 370.626 817.34 372.221 931.457 337.32C975.15 323.958 1015.57 308.135 1048.78 276.094C1064.81 260.623 1075.77 243.742 1066.91 221.822C1055.02 192.433 1010.14 191.788 985.044 192.634C919.231 194.855 856.401 218.545 799.198 249.642C724.8 290.089 650.776 338.094 584.165 390.338C552.636 415.066 520.629 444.778 525.789 488.847C529.813 523.222 556.007 541.257 585.989 553.266C662.013 583.717 753.11 588.45 833.973 588.725C936.91 589.075 1032.46 563.103 1129.27 530.007C1212.72 501.481 1206.23 501.413 1283.99 472.657C1319.22 459.633 1344.05 449.569 1380.22 443.469C1416.22 437.399 1452.54 441.686 1488.54 434.804C1561.44 420.868 1636.5 392.244 1704.03 362.062C1795.62 321.124 1871.94 261.776 1930.23 179.409C1954.5 145.122 1978.72 98.6382 1994.54 59.0079C2029.09 -27.5268 1990.86 61.3904 2009.13 2" stroke="#41b30a" stroke-width="3" stroke-linecap="round"/>
</svg>
