<svg width="95" height="95" viewBox="0 0 95 95" fill="none" xmlns="http://www.w3.org/2000/svg">
<path d="M56.1655 2.39958C58.9437 -1.31874 64.8483 0.425731 65.1597 5.05683L67.1535 34.7077C67.2514 36.1637 67.9805 37.5043 69.1495 38.3777L92.9563 56.1651C96.6747 58.9432 94.9302 64.8479 90.2991 65.1593L60.6482 67.1531C59.1922 67.251 57.8516 67.9801 56.9782 69.1491L39.1908 92.9559C36.4127 96.6742 30.508 94.9298 30.1966 90.2987L28.2028 60.6477C28.1049 59.1917 27.3758 57.8512 26.2068 56.9777L2.40001 39.1904C-1.31831 36.4122 0.426164 30.5076 5.05726 30.1962L34.7082 28.2024C36.1642 28.1045 37.5047 27.3754 38.3782 26.2064L56.1655 2.39958Z" fill="#1F69D7"/>
</svg>
