<svg width="538" height="570" viewBox="0 0 538 570" fill="none" xmlns="http://www.w3.org/2000/svg">
<path d="M557.668 116.897C565.901 115.476 571.459 125.065 566.133 131.502L414.675 314.615C412.629 317.089 411.766 320.333 412.312 323.497L452.729 557.668C454.15 565.901 444.561 571.459 438.124 566.134L255.011 414.676C252.537 412.63 249.293 411.766 246.129 412.312L11.9579 452.729C3.72483 454.15 -1.83292 444.562 3.49212 438.124L154.95 255.011C156.996 252.538 157.86 249.293 157.314 246.13L116.897 11.9583C115.476 3.72525 125.064 -1.83249 131.502 3.49254L314.615 154.951C317.088 156.997 320.333 157.86 323.496 157.314L557.668 116.897Z" stroke="#DD5000" stroke-width="2"/>
</svg>
